PathFileType	4	(X/Y/Z)	39_2_61_p0_0-332.trc
DataRate	CameraRate	NumFrames	NumMarkers	Units	OrigDataRate	OrigDataStartFrame	OrigNumFrames
47.0	47.0	4	27	m	47.0	0	333
Frame#	Time	RHip			RKnee			RAnkle			RBigToe			RSmallToe			RHeel			LHip			LKnee			LAnkle			LBigToe			LSmallToe			LHeel			Neck			Head			Nose			RShoulder			RElbow			RWrist			RThumb			RIndex			RPinky			LShoulder			LElbow			LWrist			LThumb			LIndex			LPinky			
		X1	Y1	Z1	X2	Y2	Z2	X3	Y3	Z3	X4	Y4	Z4	X5	Y5	Z5	X6	Y6	Z6	X7	Y7	Z7	X8	Y8	Z8	X9	Y9	Z9	X10	Y10	Z10	X11	Y11	Z11	X12	Y12	Z12	X13	Y13	Z13	X14	Y14	Z14	X15	Y15	Z15	X16	Y16	Z16	X17	Y17	Z17	X18	Y18	Z18	X19	Y19	Z19	X20	Y20	Z20	X21	Y21	Z21	X22	Y22	Z22	X23	Y23	Z23	X24	Y24	Z24	X25	Y25	Z25	X26	Y26	Z26	X27	Y27	Z27	
0	0.0	0.2958356172629959	0.7362267790231066	0.5653545623515053	0.23908156841785924	0.7325762313930104	0.930225843091013	0.23441419759653262	0.8448974881149298	1.3298560874259695	0.21736970565765662	0.6679037055554096	1.3542513096150823	0.2655062586825124	0.7012275463339153	1.369787117473521	0.20731223526747142	0.937675086475239	1.3912221226003367	0.06271926560164993	0.7089672518749186	0.5574055224650015	0.07835403025716949	0.7706228156497297	0.9292944910703486	0.036648328415911494	0.8195217828895477	1.3398473059690699	0.05965380034420505	0.6258893010263985	1.3220763665140234	0.007708414352877941	0.681520498447374	1.3354067713667312	0.04906044658044829	0.8707889091490069	1.3781820332924382	0.1926657163399572	0.5745808883489751	-0.010635223772801279	0.1962529434962011	0.5045871763287312	-0.25341565701347785	0.20168412693140972	0.4434043560246469	-0.12701575761991046	0.3567269842383458	0.5952364489440581	0.080625943548378	0.40298805891152695	0.5871522338249404	0.3409198949252042	0.2762392215866569	0.49970768302165147	0.5242003473434966	0.17929692015376308	0.5024312800528813	0.5643502235964385	0.16735042698733038	0.5158121344750262	0.5977953521745994	0.18018092166753538	0.5178711662106951	0.6029544530401978	0.033696449907013266	0.58516408567796	0.06906602101011611	-0.03508379977966439	0.6466033602796996	0.3374001816662517	0.10567872180866378	0.49799663057763394	0.5101698512563627	0.18809751195744168	0.4943872195640431	0.5273560341707374	0.19166018710995186	0.503222419640154	0.583970784622967	0.17988821797452112	0.516272722131212	0.6020348872821593
1	0.02127659574468085	0.29621075839251715	0.7377518994960673	0.5699024639115466	0.24062400010867116	0.7338341378741816	0.9306329320013625	0.2344500477860596	0.844807809969462	1.3297878429989722	0.2132224447923247	0.6652289689461989	1.353059429597633	0.2655781088966166	0.701203552767931	1.3698479126192593	0.20730893962730565	0.9375874954185718	1.3910145693600122	0.06295905335202032	0.7117767369149093	0.5580745152897821	0.07809542178869514	0.7714960529596958	0.9254578111926738	0.0361487538816184	0.81703532436326	1.3339295479102542	0.059625175102291386	0.626244083297959	1.3222526217310313	0.007656772613633796	0.6812566850992383	1.3352259899713674	0.04919853600419697	0.8701067915426057	1.3776048381916393	0.1926995570136274	0.5745570275207071	-0.010507411605012822	0.196376009812712	0.5042063030403736	-0.2533937079826825	0.20170902329563734	0.4432710885274734	-0.1268728815725484	0.3566737493568848	0.5950748997727283	0.08054256511171115	0.39927260459042613	0.6026858033469261	0.346803885678101	0.2803690987440339	0.5009490629792709	0.52112293725407	0.17916882906598733	0.5031111946451144	0.5600423366808835	0.17141070640967832	0.5170032558709199	0.5979789228052111	0.18413179417539427	0.5197909114389537	0.6034828272283506	0.03375574636605414	0.5851764458390175	0.0690480584270036	-0.03517199344912613	0.6456705200199754	0.3295995308541009	0.1057057533947829	0.4983722615320263	0.5100349710149547	0.1880165097153547	0.4941198847610604	0.5271436922209185	0.1912893192512406	0.5014421425871237	0.578968693439265	0.17978305173421272	0.5166770626199051	0.5985479753417303
2	0.0425531914893617	0.3006494690034197	0.7396793655300368	0.5700864958164692	0.23603489748454642	0.7187726658297503	0.9257900714050147	0.2356352436288569	0.8437268358636417	1.3252503255058845	0.21747679058141164	0.6680985620496853	1.354273380479217	0.26560792607316963	0.7012978790590673	1.3698430999205802	0.2073367599993684	0.9375855321454245	1.3910827593772794	0.06307126432276355	0.71186449427629	0.5581275346180665	0.07390369796488523	0.7657087086165169	0.9232038107035475	0.03660460898498154	0.8196446651740297	1.3398674864916327	0.05955982155191071	0.6259912857023511	1.3221215991228148	0.00759085498575539	0.6815527327729606	1.3353974986847625	0.0491866558754518	0.87065051368318	1.3780038046903178	0.19270882050646082	0.5745351975671604	-0.010508921256493579	0.19634809286146201	0.5043883204825688	-0.2532885463222059	0.20168135382357463	0.44326412401458676	-0.12686247400960096	0.3566622031555044	0.595043732925957	0.08051564438069563	0.40206881408846296	0.6137657440331294	0.34439717034004014	0.28109154393837593	0.5009967524308774	0.5171981065234272	0.1798780857701839	0.5029682273307209	0.5565426701134031	0.17225364237953583	0.5165200673874117	0.5944381509221445	0.1838507679879416	0.5186038650005025	0.5990734322098766	0.03380716890747213	0.5852292136688495	0.06907806317679613	-0.0352062852081805	0.6459693711397166	0.32962450346181377	0.10561817529004217	0.4968602331653005	0.505944457851306	0.18781463395229483	0.49244402641839047	0.5230215654968172	0.1914965169892067	0.5010705580948112	0.5786813228329698	0.18002146987286125	0.5168545646828229	0.5985445164856478
3	0.06382978723404255	0.2962852576669293	0.7379808553197972	0.569854164700373	0.24083075008067695	0.7328360725676694	0.9345948316712755	0.23159880851865258	0.8292108688377695	1.3231960669235816	0.21322673898995798	0.6653866788340642	1.3529433619479696	0.26549488546197186	0.7010967845508085	1.3698390409436452	0.2073271995635125	0.9370857130565536	1.3910321099249683	0.062920478621676	0.7112326557549572	0.5619486098234356	0.07439364076454702	0.7669183046665201	0.9323376368311755	0.040947280771248054	0.822245490636619	1.3410756100275953	0.058277810431795724	0.6270327529922795	1.326261100818081	0.006323782599030003	0.6824042986836608	1.3394715893485714	0.04918931514823239	0.8706846194912679	1.3780374542207012	0.19276036822758938	0.574612387042268	-0.010465705579647065	0.19639230353188786	0.5042828067794639	-0.2533408878345539	0.20165539265506063	0.44308006859885074	-0.12688335805427342	0.3567106242445804	0.5951350522490667	0.08049970017365263	0.40671498727358	0.6000537995773773	0.33478317245608974	0.28373815455873025	0.5131577037701285	0.5191473890488922	0.1831524527861361	0.5134976230415079	0.5510126881328077	0.17168753640051682	0.5414061875419797	0.5906037922035514	0.1872084793946639	0.530714456801454	0.5981289474162436	0.03383113765096539	0.5853284355672296	0.06902480808546123	-0.03176382669903061	0.6489548745745319	0.32999536043339434	0.10927340074514474	0.4992029364320209	0.5065210871614038	0.1945328034834481	0.49832114476218664	0.523901397484221	0.2034286724940822	0.505679405927454	0.5759154549154271	0.1846834409257511	0.5176293313417615	0.5981363738625288
